# xmcd
#
# Track frame offsets:
# 150
# 16137
# 37193
# 63056
#
# Disc length: 1063 seconds
#
# Revision: 1
# Processed by: cddbd v1.5.2PL0 Copyright (c) Steve Scherf et al.
# Submitted via: CedeCatalogueitor 2.6.0.6 http://personales.ya.com/cdcatalogueitor
#
DISCID=28042504
DTITLE=The Pauls - Radio Days
DYEAR=1900
DGENRE=
TTITLE0=Radio Days
TTITLE1=Perfect Day
TTITLE2=Radio Days (album Version)
TTITLE3=Radio Days (videoclip)
EXTD=
EXTT0=
EXTT1=
EXTT2=
EXTT3=
PLAYORDER=
